<?xml version="1.0" standalone="no"?><!DOCTYPE svg PUBLIC "-//W3C//DTD SVG 1.1//EN" "http://www.w3.org/Graphics/SVG/1.1/DTD/svg11.dtd"><svg t="1744642805551" class="icon" viewBox="0 0 6348 1024" version="1.1" xmlns="http://www.w3.org/2000/svg" p-id="37611" xmlns:xlink="http://www.w3.org/1999/xlink" width="1239.84375" height="200"><path d="M5629.0304 369.7152l183.296 497.2544c11.0592 26.112 36.2496 44.9536 65.8432 46.5408h106.5984l296.1408-803.328h-116.5824l-200.1408 542.8736-213.0432-542.8736h-147.6608l-296.0896 803.328h116.6336l203.9808-553.6768 1.024 9.8816zM2675.712 662.3744l368.0256-552.192h132.864L2662.8608 879.5136c-13.3632 19.968-35.84 33.2288-60.8256 33.9968h-4.9152l-2.4576-0.1024a1.536 1.536 0 0 1 0.6144 0.1024h-126.0032L2406.4 110.1824h226.1504l43.1616 552.192zM5083.648 185.856c-83.3536 2.4576-153.4976 50.432-183.7568 129.024l-149.4528 409.0368a75.1616 75.1616 0 0 0-5.5296 31.0784v0.2048c0 43.7248 33.8944 79.7184 76.4928 83.0464h22.1184c83.3536-2.5088 153.4464-50.688 183.6544-129.0752l149.504-409.0368c3.9424-9.728 5.7856-20.3776 5.4784-31.1808V268.8c0-43.6736-33.792-79.7184-76.4928-83.0464l-22.016 0.1024z m-428.3904 167.7824c78.848-167.2704 244.992-256.1536 398.6432-251.0336h140.288c118.3744 5.5808 190.208 103.7312 196.2496 184.9856 1.3824 19.2 1.1776 37.9904-1.4336 52.6848-1.8432 9.0624-3.9424 18.176-6.144 27.3408-24.7808 103.168-62.1568 208.384-111.0016 302.7456-78.848 167.3216-244.992 256.1536-398.6944 251.0336h-140.288c-118.3232-5.632-190.1568-103.7312-196.1984-184.9856a230.5536 230.5536 0 0 1 1.3312-52.736c1.9456-9.0112 4.0448-18.1248 6.144-27.2896 24.8832-103.168 62.208-208.384 111.104-302.7456z m-341.9136 559.872L4608 110.1824h-226.304l-294.7072 803.328h226.304z m-1113.3952 0l294.7584-803.328h-226.304l-294.8096 803.328h226.304z m420.352-428.1344c-111.3088-145.664-21.1968-372.8384 182.4768-375.3472h414.1056l-37.376 101.6832h-334.7456c-55.7056 0.7168-86.6816 69.2224-55.808 110.9504 51.8656 80.0256 139.52 135.936 194.816 217.9584 119.808 161.5872-1.024 372.3776-179.5072 372.8896h-455.5264l37.376-101.6832h359.68c55.0912-0.6656 85.9136-68.9664 57.088-109.8752-45.568-75.6736-126.1056-147.456-182.5792-216.576z" fill="#727171" p-id="37612"></path><path d="M1784.9856 410.5728l113.2032-307.968h-245.4016L1351.68 921.6h245.4528l115.5072-314.112 61.2352-47.2064 162.8672 316.5184v-0.3584a2.816 2.816 0 0 1 0.512 0.6656c13.312 27.8016 42.5984 46.08 74.9568 43.9296a8.2944 8.2944 0 0 0-1.7408 0.3584h208.3328L1959.424 417.4336l408.9856-314.8288h-183.3472L1784.9856 410.624zM430.592 417.9456l115.968-315.3408H301.1584L0 921.6h245.4016l144.0256-391.68h292.352L537.7024 921.6h191.744a77.7216 77.7216 0 0 0 71.9872-49.92l282.7776-769.024h-245.3504L722.944 417.8944H430.592zM1187.072 921.6h-245.8624l301.7216-819.2h245.9648l-301.824 819.2z" fill="#D70110" p-id="37613"></path></svg>