<?xml version="1.0" standalone="no"?><!DOCTYPE svg PUBLIC "-//W3C//DTD SVG 1.1//EN" "http://www.w3.org/Graphics/SVG/1.1/DTD/svg11.dtd"><svg t="1746806462069" class="icon" viewBox="0 0 1024 1024" version="1.1" xmlns="http://www.w3.org/2000/svg" p-id="7851" xmlns:xlink="http://www.w3.org/1999/xlink" width="200" height="200"><path d="M305.5 493.8c-3.5 6.6-7.1 13.1-10.3 19.9-7.1 15-14 30-21.1 45-0.5 1.1-1.5 2-2.1 3.1-2.4 4.8-3.8 12.7-7.3 13.8-8.6 2.6-18.1 2.5-27.3 2.3-1.9 0-4.2-4.9-5.4-7.9-9.9-25.1-19.5-50.4-29.3-75.6-3.1-7.9-6.5-15.7-9.7-23.5l-3 0.6v27.2c0 25.6-0.2 51.3 0.2 76.9 0.1 7.2-2.7 9.5-9.3 8.6-5.1-0.6-11.2 0.2-14.9-2.4-3.8-2.7-7.2-8.7-7.3-13.3-0.6-36.6-0.6-73.2-0.3-109.7 0.1-14 9.3-20.6 22.9-17.4 7.5 1.8 14.7 5 22.3 5.9 13.6 1.6 17 11 19.7 22 1.6 6.3 4.7 12.2 7.1 18.2 6.5 16.8 12.9 33.7 19.4 50.5 0.7 1.7 2 3.2 4.1 6.6 4.1-8.1 7.7-14.6 10.9-21.4 7.1-15 14-30.1 20.9-45.2 2.1-4.6 5-6.4 10-4.7 4.9 1.7 9.9 2.9 14.8 4.6 7.9 2.7 11.5 7.6 11.6 16.2 0.1 23.6 0.1 47.3 0 70.9-0.1 33.3-24.1 58.3-54.4 61-25.2 2.2-50.4 5-75.6 7.5-14.6 1.4-29.1 3.2-43.7 4.2-25 1.6-46.9-14.3-53.9-38.3-2.2-7.4-1.8-15.6-1.8-23.5-0.1-41.8-0.6-83.6 0.5-125.4 0.5-17.5 11-30.9 25.7-40.5 18.7-12.3 38.1-10.5 58.5-4.2 40.5 12.4 81.3 23.7 121.9 35.6 2.5 0.7 4.3 3.7 6.4 5.6-2.6 1.2-5.5 3.9-7.7 3.4-10.4-2.1-20.7-5-31-7.9-31.3-8.8-62.4-18.1-93.8-26.5-21.1-5.6-45 13.2-44.3 35.9 0.9 28.1-0.2 56.2-0.3 84.3 0 14.2 0.3 28.4 0.6 42.5 0.4 15.2 14.7 30.4 29.8 29.9 21.1-0.8 42.1-3 63.1-4.9 12.8-1.1 25.6-3.7 38.4-3.7 25.5-0.1 47.1-18.3 48.1-43 0.5-13.9 0.7-27.8 0.7-41.8 0-6.9-0.8-13.8-1.3-20.7-0.8-0.1-1.7-0.4-2.5-0.7z" fill="#EC6B01" p-id="7852"></path><path d="M631.9 557.6c-2.1 15.3-4.2 30.6-6.3 46.1H601c1.9-15.5 3.9-30.6 5.8-45.9-7.7-1.9-13.3-1.2-18.5 5-9 10.6-18.9 20.5-28.4 30.5-7.5 7.9-16.1 13.2-28.1 10-0.3-5.7 0.2-10.1 5.8-14.8 10.8-9 19.9-19.9 31.1-31.4h-31.2c0.7-4.7 1.2-8.4 1.8-12.7h69.5c0.4-4.1 0.8-7.7 1.2-12h-69.5c2.7-19.4 4.9-38 8-56.5 1.6-9.8 13-18.2 23.7-18.2 46.3-0.2 92.6-0.1 138.9 0 1.2 0 2.4 0.4 4.2 0.6-2.2 15.6-4.1 31-6.8 46.2-1.1 6.2-2.7 12.7-5.9 17.9-4 6.6-10.9 9.9-18.9 9.9h-48.3c-0.6 3.9-1.1 7.5-1.7 11.8h70c-0.7 4.6-1.3 8.3-2 12.6h-35c10.6 13.3 15.6 28.1 30.2 36.8-0.4 2.7-1 6.2-1.5 9.7-11.1 3.2-18.9-1-25.2-9.7-6.9-9.7-14.7-18.9-20.7-29-4.4-7.4-9.7-8.6-17.6-6.9z m9.6-67.7c15.6 0 29.7 0.1 43.8-0.1 1.5 0 4.1-1.5 4.3-2.8 1-5 1.4-10.1 2-15.6h-48c-0.7 5.9-1.3 11.6-2.1 18.5z m-73.6-1.3c1.3 0.6 2 1.2 2.6 1.2 8.9 0.1 17.8 0.1 26.7 0.1 17.6 0.1 17.6 0.1 20.9-16.8 0.1-0.4-0.2-0.9-0.5-2-12.9 0-26.1-0.6-39.1 0.4-3.4 0.3-6.8 5.4-9.3 8.9-1.4 1.9-0.9 5.2-1.3 8.2z m46.1 12.7h-47.8c-0.8 6.1-1.6 11.6-2.4 17.6h48c0.8-6.1 1.5-11.7 2.2-17.6z m23.3 18.1h33.4c13.2 0 17.3-4.8 15.6-18.1h-46.8c-0.7 6.1-1.4 11.6-2.2 18.1zM367.2 532.8h-19.5c0.5-4.6 1-8.3 1.4-12.5h78.6c-1.2-6.6-2.2-12.5-3.3-18.9h23.9c1.5 6 3 12.1 4.7 18.8h71.1c-0.7 4.4-1.3 8.1-2 12.4H391.8c-2.1 15-4.5 29.4-6.1 43.8-0.9 8.5 5.9 15 14.7 14.9 35.6 0 71.1-0.2 106.7-0.2 2 0 4 0.3 6.9 0.5-0.6 4.1-1.1 8-1.7 12.3H389.1c-19.8 0-30.4-12.3-27.5-31.6 1.8-12.6 3.6-25.3 5.6-39.5zM808 486.3h23.4c8.8 32.6 17.6 65.1 27.1 100.1 4.7-10.9 8.5-19.8 12.3-28.8 9.4-22.1 18.8-44.1 28-66.3 1.7-4 3.8-5.6 8.1-5.4 6.6 0.3 13.3 0.1 21.1 0.1-7 14.5-13.5 28.1-20 41.6-10 21-20.1 41.9-29.9 63-4.4 9.4-10.9 13.9-21.5 13.5-16-0.6-15.9-0.2-20.2-15.6-8.8-31.4-17.7-62.7-26.5-94.1-0.7-2.4-1.1-4.8-1.9-8.1zM749.8 500h-21.4c0.6-5.1 1.2-9.2 1.7-13.7h21.2c1-7.6 2.4-14.8 2.8-22.1 0.3-5.3 2.3-6.9 7.3-6.6 5.2 0.3 10.4 0.1 16.9 0.1-0.9 9.4-1.7 18.3-2.6 28H799v8.6c0 4.1-1.9 5.5-6 5.5-6.1 0-14.3-1.7-17.9 1.5-3.5 3.2-2.5 11.5-3.4 17.6-2.3 17.4-4.8 34.8-6.8 52.2-1.5 13.5 4.2 19.4 17.6 19.6h9.1c-0.6 4.6-1.1 8.7-1.8 13.9-12.1-0.7-24-0.4-35.6-2.2-10.5-1.7-15.4-8.3-14.7-19 0.8-13.6 2.8-27.1 4.5-40.6 1.6-13.8 3.7-27.4 5.8-42.8zM477.5 499.7c0.7-5.6 1.3-9.9 1.9-14.8h-80.8c-0.8 4.7-1.6 9.4-2.5 14.5h-24.4c0.4-4.9 0.9-9.5 1.4-14.8h-19.4c0.7-4.4 1.3-7.9 1.9-12.3 4.5 0 9-0.3 13.4 0.1 5.1 0.4 7.7-1.5 7.2-6.7-0.6-6.7 2.5-8.7 8.9-8.1 5.1 0.5 10.4 0.1 16.6 0.1-0.4 4.7-0.8 8.9-1.2 14 2.3 0.2 4.6 0.6 7 0.6 22.1 0 44.2-0.3 66.4 0.2 6.4 0.1 8.7-2.6 8.4-8-0.3-6 2.6-7.1 7.7-6.8 5.7 0.3 11.3 0.1 17.2 0.1 0.2 1.5 0.5 2.4 0.5 3.3-0.9 11.1-0.9 11.1 10.1 11.3 3.9 0.1 7.9 0 12.3 0-0.6 4.3-1.2 7.9-1.8 11.9h-23c-0.7 2.3-2.1 4.4-1.9 6.4 0.8 8.6-3.8 9.9-10.9 9.1-4.6-0.5-9.3-0.1-15-0.1z" fill="#1D2120" p-id="7853"></path></svg>